<svg width="92" height="82" viewBox="0 0 92 82" fill="none" xmlns="http://www.w3.org/2000/svg">
<g clip-path="url(#clip0_3_20)">
<path fill-rule="evenodd" clip-rule="evenodd" d="M50.6887 61.0547C50.4176 68.4381 55.0418 73.8061 61.4843 73.5864C61.7555 66.203 57.1312 60.835 50.6887 61.0547Z" fill="white"/>
<path fill-rule="evenodd" clip-rule="evenodd" d="M48.0796 61.8602C43.6425 64.6977 42.4058 70.4733 45.1925 75.3438C49.6296 72.5065 50.8662 66.7307 48.0796 61.8602Z" fill="white"/>
<path fill-rule="evenodd" clip-rule="evenodd" d="M66.2458 55.1399C70.6531 54.9035 73.5645 50.9623 73.0426 45.9391C68.6353 46.1756 65.7239 50.1166 66.2458 55.1399Z" fill="white"/>
<path fill-rule="evenodd" clip-rule="evenodd" d="M68.645 55.3577C70.4529 58.5684 73.8031 59.2525 76.4665 56.9547C74.6587 53.744 71.3085 53.0599 68.645 55.3577Z" fill="white"/>
<path fill-rule="evenodd" clip-rule="evenodd" d="M54.5658 44.7639L45.6898 40.0435C55.8041 35.9456 60.1673 28.196 58.7793 16.7946C59.1447 9.45454 61.7582 5.21301 66.6199 4.07003C66.7092 4.05254 66.7912 4.00285 66.8542 3.92818C66.9171 3.85352 66.9576 3.75778 66.9698 3.65489C66.982 3.55199 66.9652 3.44732 66.9219 3.35611C66.8787 3.26489 66.8111 3.19188 66.7292 3.1477C65.2371 2.40904 63.4069 2.06707 61.2386 2.12178C55.7139 -1.59958 50.4881 -0.42546 45.5612 5.64413C30.9661 21.7646 21.8193 31.8674 18.1207 35.9527C17.9614 36.1229 17.8454 36.3396 17.7852 36.5796C17.7251 36.8196 17.723 37.0738 17.7792 37.3151C17.8355 37.5563 17.948 37.7754 18.1046 37.949C18.2612 38.1225 18.4561 38.2439 18.6683 38.3001C22.2491 38.6275 25.7224 38.6456 29.0881 38.3544C29.2506 38.3012 29.425 38.3243 29.5727 38.4185C29.7205 38.5128 29.8295 38.6704 29.8759 38.8568C29.9223 39.0433 29.9021 39.2432 29.8199 39.4126C29.7378 39.582 29.6002 39.707 29.4377 39.7602C26.7645 40.6162 24.0173 41.1325 21.2457 41.3C21.2457 41.3 13.9614 52.8562 0.158671 74.0934C0.0587016 74.2774 0.0039327 74.4889 0.000149213 74.7057C-0.00363428 74.9224 0.043708 75.1363 0.137176 75.3247C0.230708 75.5132 0.366936 75.6692 0.531449 75.7763C0.695962 75.8833 0.882643 75.9373 1.07174 75.9327C3.35489 75.692 7.36419 75.2691 13.0996 74.6639C13.2429 74.6487 13.3872 74.6335 13.5327 74.6182C13.9309 74.5389 14.3086 74.3585 14.638 74.0901C14.9675 73.8217 15.2404 73.4722 15.4367 73.0672C16.8216 69.596 20.7646 59.7127 27.2656 43.4172C29.2184 43.3408 31.081 43.2073 32.8533 43.0168L42.0871 52.2458C37.7786 55.1402 33.7025 58.3759 29.9896 62.3451C30.5177 59.2465 30.8301 56.19 30.9266 53.1755C30.8639 52.9175 30.7284 52.6906 30.5413 52.5302C30.3542 52.3698 30.1261 52.2849 29.8925 52.2889C29.6589 52.2929 29.433 52.3854 29.2502 52.5521C29.0673 52.7187 28.9377 52.9502 28.8817 53.2102C27.8404 58.7635 26.0673 64.5679 23.5624 70.6234C22.1821 72.7803 20.8838 75.1172 19.677 77.6651C18.906 80.6347 23.3119 83.5096 26.0016 81.1021C28.2917 74.6443 31.3742 69.5088 35.0046 65.209C40.1369 59.1301 58.9018 57.3219 67.6677 58.0915C67.7514 58.1134 67.8381 58.1154 67.9225 58.0974C68.0068 58.0793 68.0871 58.0417 68.1583 57.9867C68.2295 57.9317 68.29 57.8606 68.3363 57.7777C68.3826 57.6948 68.4135 57.6019 68.4273 57.5048C68.441 57.4076 68.4372 57.3083 68.4162 57.2129C68.3951 57.1175 68.3572 57.0281 68.3048 56.9501C68.2524 56.8722 68.1867 56.8074 68.1116 56.7597C68.0365 56.712 67.9537 56.6825 67.8682 56.673C65.1966 56.2711 62.5772 56.0217 60.0101 55.9245C61.2426 55.414 62.4327 54.7774 63.5658 54.0225C63.661 53.9539 63.7298 53.8464 63.7585 53.7218C63.7871 53.5972 63.7734 53.4647 63.7201 53.3512C63.6668 53.2378 63.5779 53.1517 63.4714 53.1106C63.3648 53.0694 63.2487 53.0762 63.1463 53.1296C61.7427 53.9967 59.8027 54.913 57.3266 55.8783C52.2264 55.8986 47.3392 56.5388 42.6651 57.7987C55.9295 46.7988 72.6733 41.7023 86.2154 26.3174C87.7827 24.5404 86.2809 22.195 84.4061 24.0531C79.5188 28.8961 74.4404 32.7358 69.3343 36.0665C70.1492 34.2005 70.8042 32.2481 71.2902 30.237C72.5027 28.2665 73.8385 26.7202 75.2976 25.5981C75.3792 25.5344 75.4378 25.439 75.4626 25.3295C75.4874 25.2201 75.4768 25.104 75.4326 25.0028C75.3878 24.9011 75.3121 24.8218 75.2197 24.7798C75.1274 24.7377 75.0248 24.736 74.9314 24.7749C73.818 25.4369 72.7905 26.2734 71.8785 27.2605C72.0408 26.2111 72.1576 25.1524 72.2289 24.0844C72.2101 23.9193 72.1394 23.7678 72.03 23.6582C71.9207 23.5485 71.7803 23.4884 71.635 23.489C71.5119 23.4895 71.3919 23.5337 71.2915 23.6154C71.1911 23.6972 71.1153 23.8125 71.0743 23.9457C71.0645 23.994 71.0548 24.0416 71.0449 24.0896C69.8938 29.6742 67.1665 37.5415 62.4511 40.2911C59.8025 41.8359 57.1663 43.3039 54.5658 44.7641M55.5643 3.21074C55.8585 3.21074 56.1407 3.34475 56.3488 3.5833C56.5568 3.82184 56.6737 4.14538 56.6738 4.48275C56.6737 4.82011 56.5568 5.14364 56.3487 5.38218C56.1407 5.62072 55.8585 5.75474 55.5643 5.75476C55.27 5.75474 54.9879 5.62072 54.7798 5.38217C54.5718 5.14363 54.4549 4.8201 54.4549 4.48275C54.4548 4.31568 54.4835 4.15024 54.5392 3.99588C54.595 3.84151 54.6767 3.70125 54.7797 3.5831C54.8827 3.46494 55.005 3.37122 55.1397 3.30726C55.2743 3.24331 55.4186 3.21039 55.5643 3.21038V3.21074ZM53.0846 45.5978C49.7229 47.4959 46.4286 49.4042 43.2524 51.4752L38.7945 46.3221C36.6072 43.8142 36.0764 42.6164 37.7066 42.3108C39.3737 41.9983 40.9469 41.637 42.4155 41.1857C43.5758 40.829 50.3358 44.173 53.0846 45.5975V45.5978Z" fill="white"/>
<path fill-rule="evenodd" clip-rule="evenodd" d="M81.1372 32.6004C82.8414 37.9203 87.4945 40.16 92 37.8294C90.2957 32.5096 85.6428 30.2698 81.1372 32.6004Z" fill="white"/>
<path fill-rule="evenodd" clip-rule="evenodd" d="M81.7418 35.6132C79.3586 38.909 79.8493 43.2437 82.887 45.733C85.2702 42.4372 84.7799 38.1024 81.7418 35.6132Z" fill="white"/>
</g>
<defs>
<clipPath id="clip0_3_20">
<rect width="92" height="82" fill="white"/>
</clipPath>
</defs>
</svg>
