<svg width="29" height="29" viewBox="0 0 29 29" fill="none" xmlns="http://www.w3.org/2000/svg">
<g clip-path="url(#clip0_30_19)">
<path d="M19.1349 19.3082C19.4666 19.64 20.0046 19.64 20.3364 19.3082L23.9431 15.7015L27.5497 19.3082C27.8815 19.6399 28.4194 19.64 28.7512 19.3082C29.083 18.9764 29.083 18.4385 28.7512 18.1067L25.1445 14.5L28.7512 10.8934C29.083 10.5616 29.083 10.0236 28.7512 9.69184C28.4194 9.36004 27.8815 9.36004 27.5497 9.69184L23.943 13.2985L20.3364 9.69184C20.0046 9.36004 19.4666 9.36004 19.1348 9.69184C18.803 10.0236 18.803 10.5616 19.1348 10.8934L22.7415 14.5L19.1348 18.1067C18.8031 18.4385 18.8031 18.9764 19.1349 19.3082Z" fill="#CD8E18"/>
<path d="M14.8283 3.04481L5.29358 8.29375H0.849609C0.380398 8.29375 0 8.67415 0 9.14336V19.8567C0 20.3259 0.380398 20.7063 0.849609 20.7063H5.29358L14.8283 25.9552C15.8986 26.5443 17.208 25.7702 17.208 24.5488V4.4512C17.208 3.23042 15.8991 2.45535 14.8283 3.04481ZM1.69922 9.99297H4.66237V19.007H1.69922V9.99297ZM15.5088 24.3901L6.36159 19.3545V9.64548L15.5088 4.6099V24.3901Z" fill="#CD8E18"/>
</g>
<defs>
<clipPath id="clip0_30_19">
<rect width="29" height="29" fill="white"/>
</clipPath>
</defs>
</svg>
