<svg width="25" height="25" viewBox="0 0 25 25" fill="none" xmlns="http://www.w3.org/2000/svg">
<g clip-path="url(#clip0_4_79)">
<path d="M17.5 10.9375L15.625 12.8125V13.0208C15.625 16.7708 12.6042 19.7917 8.85417 19.7917C5.10417 19.7917 2.08333 16.7708 2.08333 13.0208C2.08333 9.27083 5.10417 6.25 8.85417 6.25C10.1042 6.25 11.3542 6.5625 12.2917 7.1875L13.75 5.625C12.3958 4.6875 10.7292 4.16666 8.85417 4.16666C3.95833 4.16666 0 8.125 0 13.0208C0 17.9167 3.95833 21.875 8.85417 21.875C13.75 21.875 17.7083 17.9167 17.7083 13.0208C17.7083 12.2917 17.6042 11.5625 17.5 10.9375Z" fill="#CD8E18"/>
<path d="M20.8333 4.58333L9.37492 16.0417L4.58325 11.25L6.04159 9.79167L9.37492 13.125L19.3749 3.125L20.8333 4.58333Z" fill="#CD8E18"/>
<path d="M20.8333 4.58333L9.37492 16.0417L4.58325 11.25L6.04159 9.79167L9.37492 13.125L19.3749 3.125L20.8333 4.58333Z" fill="#CD8E18"/>
</g>
<defs>
<clipPath id="clip0_4_79">
<rect width="25" height="25" fill="white"/>
</clipPath>
</defs>
</svg>
