<svg width="26" height="26" viewBox="0 0 26 26" fill="none" xmlns="http://www.w3.org/2000/svg">
<g clip-path="url(#clip0_4_85)">
<path d="M18.8021 6.2674C15.3462 2.81158 9.72309 2.81158 6.26724 6.26743C2.81142 9.72325 2.81142 15.3464 6.26724 18.8022C9.72307 22.258 15.3462 22.2581 18.8021 18.8023C22.2579 15.3464 22.2579 9.72325 18.8021 6.2674ZM16.1187 7.21775L12.5345 10.8019L8.95054 7.21787C11.1082 5.76234 13.9609 5.76234 16.1187 7.21775ZM7.21769 8.95072L10.8017 12.5347L7.21759 16.1188C5.76208 13.9612 5.76221 11.1083 7.21769 8.95072ZM8.95056 17.8518L12.5347 14.2677L16.1187 17.8517C13.9611 19.3072 11.1082 19.3073 8.95056 17.8518ZM14.2675 12.5348L17.8516 8.95072C19.3072 11.1084 19.3071 13.9612 17.8515 16.1189L14.2675 12.5349L14.2675 12.5348Z" fill="#3B452A"/>
</g>
<defs>
<clipPath id="clip0_4_85">
<rect width="17.7269" height="17.7269" fill="white" transform="translate(12.5347) rotate(45)"/>
</clipPath>
</defs>
</svg>
