<svg width="27" height="27" viewBox="0 0 27 27" fill="none" xmlns="http://www.w3.org/2000/svg">
<g clip-path="url(#clip0_30_2)">
<path d="M16.5307 26.7245C16.3103 26.7245 16.0347 26.6694 15.8694 26.5041L5.95107 18.6796C5.67556 18.4592 5.51025 18.1286 5.51025 17.7979V9.20202C5.51025 8.87141 5.67556 8.5408 5.95107 8.32039L15.8694 0.495901C16.2 0.22039 16.6409 0.165288 17.0266 0.385697C17.3572 0.551003 17.6327 0.936717 17.6327 1.37753V25.6224C17.6327 26.0632 17.4123 26.449 17.0266 26.6143C16.8613 26.6694 16.696 26.7245 16.5307 26.7245ZM7.71434 17.2469L15.4286 23.3632V3.63672L7.71434 9.75304V17.2469Z" fill="#CD8E18"/>
<path d="M6.61227 18.9H1.48778C0.881661 18.9 0.385742 18.4041 0.385742 17.7979V9.20202C0.385742 8.59589 0.881661 8.09998 1.48778 8.09998H6.61227C7.2184 8.09998 7.71431 8.59589 7.71431 9.20202V17.7979C7.71431 18.4041 7.2184 18.9 6.61227 18.9ZM2.58982 16.6959H5.51023V10.3041H2.58982V16.6959Z" fill="#CD8E18"/>
<path d="M22.7021 23.6938C22.4817 23.6938 22.2613 23.6387 22.0409 23.4734C21.5449 23.0877 21.4347 22.4265 21.8204 21.9306C25.2919 17.2469 25.2919 9.69793 21.8204 5.01425C21.4898 4.57344 21.6 3.85711 22.0409 3.5265C22.5368 3.14078 23.198 3.25099 23.5837 3.74691C27.6062 9.14691 27.6062 17.9081 23.5837 23.3081C23.3633 23.5836 23.0327 23.6938 22.7021 23.6938Z" fill="#CD8E18"/>
<path d="M20.0572 20.1122C19.8368 20.1122 19.6164 20.0571 19.396 19.8918C18.9 19.5061 18.7898 18.8448 19.1755 18.3489C21.1592 15.704 21.1592 11.2959 19.1755 8.65096C18.7898 8.15504 18.9 7.49382 19.396 7.1081C19.8919 6.72239 20.5531 6.83259 20.9388 7.32851C23.5286 10.7999 23.5286 16.1999 20.9388 19.6714C20.7184 19.9469 20.3878 20.1122 20.0572 20.1122Z" fill="#CD8E18"/>
</g>
<defs>
<clipPath id="clip0_30_2">
<rect width="27" height="27" fill="white"/>
</clipPath>
</defs>
</svg>
